<?xml version="1.0" encoding="UTF-8" standalone="no"?>
<!DOCTYPE svg PUBLIC "-//W3C//DTD SVG 1.1//EN" "http://www.w3.org/Graphics/SVG/1.1/DTD/svg11.dtd">
<svg width="100%" height="100%" viewBox="0 0 174 148" version="1.1" xmlns="http://www.w3.org/2000/svg" xmlns:xlink="http://www.w3.org/1999/xlink" xml:space="preserve" xmlns:serif="http://www.serif.com/" style="fill-rule:evenodd;clip-rule:evenodd;stroke-linejoin:round;stroke-miterlimit:2;">
    <g transform="matrix(1,0,0,1,-467,-5277)">
        <g transform="matrix(0.551625,0,0,0.551625,320.947,2100.82)">
            <g id="Benefits-hand" serif:id="Benefits hand" transform="matrix(3.80352,0,0,3.80352,-902.879,-8176.3)">
                <path d="M321.885,3726.23C322.03,3727.59 321.092,3728.83 319.742,3729.06L310.911,3730.65L307.111,3709.5L315.953,3707.92C317.375,3707.67 318.737,3708.61 318.997,3710.03L321.853,3725.98L321.885,3726.23ZM364.659,3719.39C366.382,3718.88 368.208,3719.82 368.775,3721.53C369.254,3723.11 368.477,3724.79 366.968,3725.45L350.005,3732.89C347.99,3733.79 345.708,3733.87 343.633,3733.12L323.085,3725.71L320.475,3711.09C322.319,3710.77 327.825,3709.91 330.533,3710.53C334.115,3711.31 337.424,3713.03 340.119,3715.52C340.183,3715.59 340.267,3715.65 340.359,3715.68L351.226,3719.6C352.323,3720 352.974,3721.12 352.769,3722.27L352.76,3722.3C352.746,3722.42 352.716,3722.54 352.674,3722.66C352.217,3723.89 350.849,3724.53 349.607,3724.09L340.424,3720.77C340.095,3720.66 339.732,3720.83 339.61,3721.16C339.552,3721.31 339.559,3721.49 339.63,3721.64C339.705,3721.79 339.834,3721.91 339.993,3721.97L349.176,3725.28C351.075,3725.96 353.169,3724.98 353.866,3723.09C353.885,3723.02 353.903,3722.95 353.911,3722.89L364.659,3719.39ZM338.837,3698.49C338.837,3690.81 345.063,3684.58 352.743,3684.58C360.426,3684.58 366.653,3690.81 366.653,3698.49C366.653,3706.17 360.426,3712.4 352.743,3712.4C345.063,3712.4 338.837,3706.17 338.837,3698.49ZM355.95,3692.08L347.197,3703.02L349.54,3704.9L358.294,3693.96L355.95,3692.08ZM348.755,3691.89C347.31,3691.89 346.138,3693.06 346.138,3694.5C346.138,3695.95 347.314,3697.11 348.755,3697.11C350.197,3697.11 351.368,3695.95 351.368,3694.5C351.368,3693.06 350.197,3691.89 348.755,3691.89ZM359.271,3702.48C359.271,3701.04 358.103,3699.87 356.657,3699.87C355.216,3699.87 354.048,3701.04 354.048,3702.48C354.048,3703.93 355.216,3705.1 356.657,3705.1C358.103,3705.1 359.271,3703.93 359.271,3702.48ZM329.825,3691.35C322.141,3691.35 315.919,3685.12 315.919,3677.45C315.919,3669.76 322.145,3663.54 329.825,3663.54C337.504,3663.54 343.731,3669.76 343.731,3677.45C343.731,3685.12 337.508,3691.35 329.825,3691.35ZM323.454,3673.57C322.02,3675 322.02,3677.33 323.458,3678.75L329.829,3685.12L336.2,3678.75C337.629,3677.33 337.629,3675 336.2,3673.57C334.766,3672.14 332.446,3672.14 331.016,3673.57L329.825,3674.76L328.633,3673.57C327.204,3672.14 324.883,3672.14 323.454,3673.57ZM375.665,3691.35C367.981,3691.35 361.755,3685.12 361.759,3677.45C361.759,3669.76 367.985,3663.54 375.665,3663.54C383.344,3663.54 389.571,3669.76 389.571,3677.45C389.571,3685.12 383.348,3691.35 375.665,3691.35ZM368.829,3675.38L368.833,3679.51L373.602,3679.51L373.598,3684.28L377.723,3684.28L377.723,3679.51L382.493,3679.51L382.493,3675.38L377.723,3675.38L377.723,3670.61L373.598,3670.61L373.598,3675.38L368.829,3675.38Z" style="fill:rgb(0,191,255);"/>
            </g>
        </g>
    </g>
</svg>
