<?xml version="1.0" encoding="UTF-8" standalone="no"?>
<!DOCTYPE svg PUBLIC "-//W3C//DTD SVG 1.1//EN" "http://www.w3.org/Graphics/SVG/1.1/DTD/svg11.dtd">
<svg width="100%" height="100%" viewBox="0 0 133 129" version="1.1" xmlns="http://www.w3.org/2000/svg" xmlns:xlink="http://www.w3.org/1999/xlink" xml:space="preserve" xmlns:serif="http://www.serif.com/" style="fill-rule:evenodd;clip-rule:evenodd;stroke-linejoin:round;stroke-miterlimit:2;">
    <g transform="matrix(1,0,0,1,-855,-3055)">
        <g transform="matrix(0.551625,0,0,0.551625,320.947,2100.82)">
            <g id="catering-hands" serif:id="catering hands" transform="matrix(4.64559,0,0,4.64559,-3151.69,-7582.75)">
                <path d="M915.963,2007.46C915.702,2007.41 915.441,2007.39 915.18,2007.37C915.006,2007.35 914.838,2007.33 914.665,2007.32C914.122,2007.27 913.582,2007.25 913.041,2007.25L912.344,2007.25C911.801,2007.25 911.261,2007.27 910.72,2007.32C910.544,2007.33 910.379,2007.35 910.205,2007.37C909.944,2007.39 909.682,2007.41 909.42,2007.46C909.703,2005.87 911.083,2004.72 912.691,2004.73C913.573,2004.74 914.418,2005.08 915.047,2005.7C915.516,2006.19 915.834,2006.8 915.963,2007.46ZM904.665,2049.36C905.077,2050.21 904.759,2051.23 903.94,2051.69L898.601,2054.78L891.209,2041.99L896.559,2038.91C897.419,2038.41 898.52,2038.71 899.019,2039.57L904.586,2049.21L904.665,2049.36ZM930.727,2034.97C931.72,2034.23 933.12,2034.41 933.886,2035.39C934.564,2036.29 934.454,2037.57 933.633,2038.34L924.401,2047.11C923.307,2048.16 921.851,2048.74 920.334,2048.74L905.319,2048.74L900.223,2039.91C901.34,2039.27 904.699,2037.43 906.593,2037.19C909.092,2036.86 911.634,2037.21 913.957,2038.19C914.015,2038.22 914.082,2038.23 914.148,2038.23L922.089,2038.23C922.891,2038.23 923.575,2038.81 923.71,2039.6L923.71,2039.62C923.73,2039.7 923.738,2039.79 923.738,2039.87C923.732,2040.78 922.996,2041.51 922.089,2041.51L915.379,2041.51C915.139,2041.51 914.944,2041.71 914.942,2041.95C914.942,2042.06 914.987,2042.17 915.068,2042.26C915.152,2042.34 915.263,2042.38 915.379,2042.38L922.089,2042.38C923.474,2042.38 924.601,2041.26 924.609,2039.87C924.607,2039.82 924.603,2039.78 924.592,2039.73L930.727,2034.97ZM937,2028.33C937.788,2028.33 938.425,2028.97 938.425,2029.76C938.425,2030.55 937.788,2031.19 937,2031.2L888.382,2031.2C887.595,2031.19 886.958,2030.55 886.958,2029.76C886.958,2028.97 887.595,2028.33 888.382,2028.33L937,2028.33ZM916.383,2008.4C920.902,2009.17 925.014,2011.49 928.006,2014.96C931.001,2018.43 932.687,2022.85 932.777,2027.43L892.605,2027.43C892.708,2022.85 894.398,2018.44 897.391,2014.97C900.381,2011.5 904.484,2009.18 909,2008.4C910.104,2008.21 911.222,2008.12 912.342,2008.12L913.041,2008.12C914.16,2008.12 915.278,2008.21 916.383,2008.4Z" style="fill:rgb(0,191,255);"/>
            </g>
        </g>
    </g>
</svg>
