<?xml version="1.0" encoding="UTF-8" standalone="no"?>
<!DOCTYPE svg PUBLIC "-//W3C//DTD SVG 1.1//EN" "http://www.w3.org/Graphics/SVG/1.1/DTD/svg11.dtd">
<svg width="100%" height="100%" viewBox="0 0 181 119" version="1.1" xmlns="http://www.w3.org/2000/svg" xmlns:xlink="http://www.w3.org/1999/xlink" xml:space="preserve" xmlns:serif="http://www.serif.com/" style="fill-rule:evenodd;clip-rule:evenodd;stroke-linejoin:round;stroke-miterlimit:2;">
    <g transform="matrix(1,0,0,1,-824,-3764)">
        <g transform="matrix(0.813154,0,0,0.813154,874.074,2460.27)">
            <g id="Classes-screen" serif:id="Classes screen" transform="matrix(2.85797,0,0,2.85797,-2564.21,-5471.31)">
                <path d="M912.86,2518.98L912.86,2520.85C912.86,2522.24 913.35,2523.54 914.08,2524.59L880.334,2524.59C877.974,2524.59 876.024,2522.64 876.024,2520.28L876.024,2479.95C876.024,2477.59 877.977,2475.64 880.334,2475.64L929.937,2475.64C932.297,2475.64 934.247,2477.59 934.247,2479.95L934.247,2495.48C933.272,2495.32 932.297,2495.16 931.239,2495.16C930.426,2495.16 929.53,2495.24 928.717,2495.4L928.717,2488.24L881.637,2488.24L881.637,2518.66C881.637,2518.82 881.799,2518.98 881.961,2518.98L912.86,2518.98ZM894.486,2480.03C893.428,2480.03 892.615,2480.93 892.615,2481.9C892.615,2482.96 893.428,2483.77 894.486,2483.77C895.544,2483.77 896.357,2482.88 896.357,2481.9C896.357,2480.85 895.461,2480.03 894.486,2480.03ZM883.264,2480.03C882.206,2480.03 881.393,2480.93 881.393,2481.9C881.393,2482.96 882.289,2483.77 883.264,2483.77C884.322,2483.77 885.135,2482.88 885.135,2481.9C885.135,2480.85 884.322,2480.03 883.264,2480.03ZM888.873,2480.03C887.816,2480.03 887.002,2480.93 887.002,2481.9C887.002,2482.96 887.816,2483.77 888.873,2483.77C889.931,2483.77 890.744,2482.88 890.744,2481.9C890.744,2480.85 889.848,2480.03 888.873,2480.03ZM901.153,2501.9C901.153,2502.31 900.909,2502.72 900.585,2502.96L898.307,2504.42L902.211,2510.44C902.78,2511.33 902.538,2512.47 901.643,2513.04C900.75,2513.61 899.61,2513.37 899.041,2512.47L895.137,2506.46L892.86,2507.92C892.536,2508.16 892.129,2508.16 891.723,2508C891.316,2507.84 891.075,2507.51 890.992,2507.11L888.877,2495.56C888.794,2494.99 888.956,2494.5 889.445,2494.18C889.607,2494.02 890.258,2493.69 890.91,2494.18L900.584,2500.85C900.908,2501.09 901.153,2501.5 901.153,2501.9ZM931.318,2516.79C932.538,2516.79 933.678,2516.54 934.819,2516.29L946.203,2512.88L946.203,2520.85C946.203,2522.23 945.39,2523.37 944.087,2523.78L939.37,2525.16C934.168,2526.7 928.717,2526.7 923.514,2525.16L918.797,2523.78C917.577,2523.37 916.682,2522.15 916.682,2520.85L916.682,2512.96L927.742,2516.3C928.879,2516.62 930.099,2516.79 931.318,2516.79ZM952.382,2507.19L951.486,2507.43L951.492,2514.35L951.737,2514.35C952.061,2514.35 952.305,2514.59 952.305,2514.91L952.305,2517.92C952.305,2518.25 952.061,2518.49 951.737,2518.49L951.654,2518.49L952.629,2520.36C952.871,2520.69 952.547,2521.18 952.14,2521.18L949.294,2521.18C948.887,2521.18 948.643,2520.77 948.805,2520.36L949.78,2518.49L949.697,2518.49C949.373,2518.49 949.129,2518.25 949.129,2517.92L949.129,2514.91C949.129,2514.59 949.373,2514.35 949.697,2514.35L949.859,2514.34L949.859,2507.92L934.086,2512.64C933.111,2512.88 932.215,2513.04 931.24,2513.04C930.347,2513.04 929.372,2512.88 928.476,2512.64L910.18,2507.19C908.878,2506.86 908.878,2505.08 910.18,2504.67L928.476,2499.22C929.369,2498.98 930.265,2498.81 931.24,2498.81C932.215,2498.81 933.19,2498.98 934.086,2499.22L952.382,2504.67C953.684,2504.99 953.684,2506.78 952.382,2507.19Z" style="fill:rgb(0,191,255);"/>
            </g>
        </g>
    </g>
</svg>
