<?xml version="1.0" encoding="UTF-8" standalone="no"?>
<!DOCTYPE svg PUBLIC "-//W3C//DTD SVG 1.1//EN" "http://www.w3.org/Graphics/SVG/1.1/DTD/svg11.dtd">
<svg width="100%" height="100%" viewBox="0 0 154 154" version="1.1" xmlns="http://www.w3.org/2000/svg" xmlns:xlink="http://www.w3.org/1999/xlink" xml:space="preserve" xmlns:serif="http://www.serif.com/" style="fill-rule:evenodd;clip-rule:evenodd;stroke-linejoin:round;stroke-miterlimit:2;">
    <g transform="matrix(1,0,0,1,-135,-2354)">
        <g transform="matrix(0.942029,0,0,2.69186,0,0)">
            <g id="Culture-hands" transform="matrix(2.46698,0,0,0.863333,-297.293,-446.195)">
                <path d="M224.377,1589.76L224.377,1594.92C224.377,1595.49 223.915,1595.96 223.338,1595.96L201.72,1595.96C201.143,1595.96 200.68,1595.49 200.68,1594.92L200.68,1589.76C200.68,1589.18 201.143,1588.71 201.72,1588.71L223.338,1588.71C223.915,1588.72 224.377,1589.19 224.377,1589.76ZM225.696,1556.95L225.696,1577.33C225.696,1578.07 225.552,1578.8 225.268,1579.5C224.975,1580.19 224.564,1580.81 224.033,1581.33C222.702,1582.67 221.938,1584.52 221.938,1586.41L221.938,1587.22L203.119,1587.22L203.119,1586.96C203.119,1584.5 202.152,1582.17 200.409,1580.42L199.727,1579.73C198.2,1578.22 197.361,1576.19 197.361,1574.03L197.364,1563.75C197.364,1563.1 197.634,1562.47 198.111,1562C198.544,1561.58 199.099,1561.36 199.651,1561.38C200.228,1561.4 200.774,1561.63 201.178,1562.03C201.597,1562.45 201.828,1563.01 201.828,1563.61L201.828,1573.28L203.325,1573.28L203.325,1550.54C203.325,1549.3 204.326,1548.3 205.563,1548.3C206.79,1548.3 207.794,1549.3 207.794,1550.54L207.797,1565.61L209.294,1565.61L209.291,1547.77C209.291,1546.54 210.293,1545.53 211.53,1545.53C212.764,1545.53 213.769,1546.54 213.769,1547.77L213.769,1566.35L215.266,1566.35L215.263,1552.04C215.263,1550.81 216.264,1549.81 217.502,1549.81C218.728,1549.81 219.732,1550.81 219.732,1552.04L219.732,1568.06L221.237,1568.06L221.235,1557.08C221.235,1556.43 221.511,1555.79 221.982,1555.32C222.423,1554.9 222.978,1554.68 223.547,1554.71C224.123,1554.74 224.654,1554.97 225.044,1555.37C225.463,1555.79 225.696,1556.35 225.696,1556.95ZM199.324,1535.56L184.037,1550.84C183.625,1551.25 182.967,1551.25 182.561,1550.84L178.918,1547.19C178.715,1547 178.612,1546.74 178.612,1546.46C178.612,1546.17 178.717,1545.92 178.918,1545.72L194.199,1530.43C194.408,1530.23 194.67,1530.13 194.941,1530.13C195.212,1530.13 195.472,1530.23 195.675,1530.43L199.326,1534.07C199.73,1534.49 199.73,1535.14 199.324,1535.56ZM218.338,1548.4C218.067,1548.34 217.783,1548.31 217.499,1548.31C216.66,1548.31 215.883,1548.59 215.26,1549.06L215.26,1547.77C215.26,1545.71 213.584,1544.04 211.527,1544.04C209.543,1544.04 207.913,1545.6 207.799,1547.55C207.179,1547.08 206.4,1546.81 205.561,1546.81C203.503,1546.81 201.827,1548.48 201.827,1550.54L201.827,1560.62C201.213,1560.17 200.474,1559.9 199.694,1559.88C198.723,1559.85 197.794,1560.22 197.068,1560.92C196.305,1561.66 195.864,1562.7 195.864,1563.75L195.864,1566L190.417,1560.56C189.9,1560.05 189.489,1559.43 189.191,1558.73C188.899,1558.02 188.758,1557.29 188.758,1556.55C188.758,1554.66 187.986,1552.81 186.654,1551.48L186.078,1550.91L199.391,1537.6L199.57,1537.79C201.3,1539.51 203.679,1540.5 206.118,1540.5L207.076,1540.5C209.239,1540.5 211.267,1541.33 212.786,1542.87L218.338,1548.4ZM236.979,1550.91L236.411,1551.48C235.071,1552.81 234.299,1554.66 234.299,1556.55C234.299,1557.28 234.156,1558.02 233.871,1558.71C233.565,1559.43 233.154,1560.05 232.629,1560.55L227.188,1566L227.193,1556.95C227.193,1555.95 226.803,1555.01 226.107,1554.32C225.458,1553.65 224.573,1553.26 223.617,1553.22C222.997,1553.19 222.383,1553.33 221.836,1553.61C222.106,1553.11 222.255,1552.53 222.263,1551.92C222.28,1550.86 221.865,1549.82 221.118,1549.06L213.85,1541.8C213.579,1541.54 213.303,1541.29 213.011,1541.06C213.948,1540.69 214.957,1540.49 215.981,1540.49L216.939,1540.49C219.378,1540.49 221.757,1539.5 223.487,1537.78L223.666,1537.6L236.979,1550.91ZM244.447,1546.46C244.447,1546.74 244.342,1547 244.142,1547.19L240.498,1550.84C240.095,1551.25 239.434,1551.25 239.023,1550.84L223.736,1535.56C223.332,1535.14 223.332,1534.49 223.736,1534.07L227.387,1530.43C227.791,1530.03 228.451,1530.03 228.863,1530.43L244.141,1545.72C244.342,1545.92 244.447,1546.17 244.447,1546.46Z" style="fill:rgb(71,176,236);"/>
            </g>
        </g>
    </g>
</svg>
