<?xml version="1.0" encoding="UTF-8" standalone="no"?>
<!DOCTYPE svg PUBLIC "-//W3C//DTD SVG 1.1//EN" "http://www.w3.org/Graphics/SVG/1.1/DTD/svg11.dtd">
<svg width="100%" height="100%" viewBox="0 0 144 117" version="1.1" xmlns="http://www.w3.org/2000/svg" xmlns:xlink="http://www.w3.org/1999/xlink" xml:space="preserve" xmlns:serif="http://www.serif.com/" style="fill-rule:evenodd;clip-rule:evenodd;stroke-linejoin:round;stroke-miterlimit:2;">
    <g transform="matrix(1,0,0,1,-841,-4504)">
        <g transform="matrix(0.551625,0,0,0.551625,320.947,2100.82)">
            <g id="Design-plans" serif:id="Design plans" transform="matrix(4.21295,0,0,4.21295,-2772.39,-8028.66)">
                <path d="M924.771,2977.28L933.743,2977.28L933.743,2980.72L924.771,2980.72L924.771,2977.28ZM923.393,2989.99L897.192,2989.99L923.393,2967.07L923.393,2989.99ZM918.799,2975.38L918.796,2975.38L907.765,2985.03C907.548,2985.22 907.473,2985.53 907.571,2985.79C907.666,2986.06 907.929,2986.24 908.214,2986.24L919.255,2986.24C919.635,2986.24 919.944,2985.93 919.944,2985.55L919.944,2975.89C919.944,2975.62 919.786,2975.38 919.54,2975.26C919.294,2975.16 919.002,2975.2 918.799,2975.38ZM918.556,2977.41L918.556,2984.86L910.043,2984.86L918.556,2977.41ZM905.646,2980.76L905.646,2980.75C905.587,2980.74 905.521,2980.72 905.452,2980.72L881.993,2980.72L881.993,2944.84L886.131,2944.84L886.131,2976.58C886.131,2976.96 886.439,2977.27 886.82,2977.27L909.627,2977.27L905.646,2980.76ZM887.509,2975.89L887.505,2975.9L887.505,2940.01L943.39,2940.01L943.39,2975.89L924.757,2975.89L924.757,2965.54C924.757,2965.27 924.6,2965.02 924.354,2964.91C924.108,2964.8 923.816,2964.84 923.613,2965.02L911.158,2975.92C911.099,2975.91 911.034,2975.89 910.965,2975.89L887.509,2975.89ZM929.598,2955.2C929.218,2955.2 928.909,2955.51 928.909,2955.88C928.909,2956.26 929.218,2956.57 929.598,2956.57L938.57,2956.57C938.951,2956.57 939.259,2956.26 939.259,2955.88C939.259,2955.5 938.951,2955.2 938.57,2955.2L929.598,2955.2ZM929.598,2946.92C929.218,2946.92 928.909,2947.23 928.909,2947.61C928.909,2947.99 929.218,2948.3 929.598,2948.3L938.57,2948.3C938.951,2948.3 939.259,2947.99 939.259,2947.61C939.259,2947.23 938.951,2946.92 938.57,2946.92L929.598,2946.92ZM929.598,2949.68C929.218,2949.68 928.909,2949.99 928.909,2950.37C928.909,2950.75 929.218,2951.06 929.598,2951.06L938.57,2951.06C938.951,2951.06 939.259,2950.75 939.259,2950.37C939.259,2949.99 938.951,2949.68 938.57,2949.68L929.598,2949.68ZM929.598,2957.96C929.218,2957.96 928.909,2958.27 928.909,2958.65C928.909,2959.03 929.218,2959.34 929.598,2959.34L938.57,2959.34C938.951,2959.34 939.259,2959.03 939.259,2958.65C939.259,2958.27 938.951,2957.96 938.57,2957.96L929.598,2957.96ZM893.461,2953.53L893.463,2953.53C893.148,2953.74 893.073,2954.17 893.283,2954.5C893.503,2954.81 893.929,2954.89 894.244,2954.67L896.716,2952.96L896.716,2965.56C896.716,2965.94 897.024,2966.24 897.405,2966.24L916.589,2966.24C916.969,2966.24 917.277,2965.94 917.277,2965.56L917.277,2952.63L920.232,2954.67C920.353,2954.75 920.488,2954.79 920.622,2954.79C920.842,2954.79 921.058,2954.68 921.193,2954.49C921.409,2954.17 921.334,2953.74 921.019,2953.53L907.633,2944.28C907.394,2944.12 907.079,2944.12 906.846,2944.28L893.461,2953.53ZM903.38,2956.58L910.283,2956.58L910.283,2964.86L903.38,2964.86L903.38,2956.58ZM902.003,2955.89L901.997,2955.89L901.99,2955.89L901.99,2964.87L898.094,2964.87L898.094,2952.01L907.237,2945.69L915.901,2951.67L915.901,2964.86L911.661,2964.86L911.661,2955.89C911.661,2955.51 911.352,2955.2 910.972,2955.2L902.692,2955.2C902.312,2955.2 902.003,2955.51 902.003,2955.89ZM929.598,2952.44C929.218,2952.44 928.909,2952.74 928.909,2953.12C928.909,2953.51 929.218,2953.81 929.598,2953.81L938.57,2953.81C938.951,2953.81 939.259,2953.51 939.259,2953.12C939.259,2952.74 938.951,2952.44 938.57,2952.44L929.598,2952.44ZM929.598,2960.72C929.218,2960.72 928.909,2961.03 928.909,2961.41C928.909,2961.79 929.218,2962.09 929.598,2962.09L938.57,2962.09C938.951,2962.09 939.259,2961.79 939.259,2961.41C939.259,2961.03 938.951,2960.72 938.57,2960.72L929.598,2960.72Z" style="fill:rgb(71,176,236);"/>
            </g>
        </g>
    </g>
</svg>
