<?xml version="1.0" encoding="UTF-8" standalone="no"?><!DOCTYPE svg PUBLIC "-//W3C//DTD SVG 1.1//EN" "http://www.w3.org/Graphics/SVG/1.1/DTD/svg11.dtd"><svg width="100%" height="100%" viewBox="0 0 24 18" version="1.1" xmlns="http://www.w3.org/2000/svg" xmlns:xlink="http://www.w3.org/1999/xlink" xml:space="preserve" xmlns:serif="http://www.serif.com/" style="fill-rule:evenodd;clip-rule:evenodd;stroke-linejoin:round;stroke-miterlimit:2;"><g id="hamburger"><path id="hamburger1" serif:id="hamburger" d="M21.78,6.679l-19.667,-0c-1.104,-0 -2,0.896 -2,2c0,1.104 0.896,2 2,2l19.667,-0c1.104,-0 2,-0.896 2,-2c-0,-1.104 -0.896,-2 -2,-2Zm-19.667,-2.667l19.667,0c1.104,0 2,-0.896 2,-2c-0,-1.104 -0.896,-2 -2,-2l-19.667,0c-1.104,0 -2,0.896 -2,2c0,1.104 0.896,2 2,2Zm19.667,9.334l-19.667,-0c-1.104,-0 -2,0.895 -2,2c0,1.104 0.896,2 2,2l19.667,-0c1.104,-0 2,-0.896 2,-2c-0,-1.105 -0.896,-2 -2,-2Z" style="fill:#00bfff;fill-rule:nonzero;"/></g></svg>