<?xml version="1.0" encoding="UTF-8" standalone="no"?>
<!DOCTYPE svg PUBLIC "-//W3C//DTD SVG 1.1//EN" "http://www.w3.org/Graphics/SVG/1.1/DTD/svg11.dtd">
<svg width="100%" height="100%" viewBox="0 0 156 143" version="1.1" xmlns="http://www.w3.org/2000/svg" xmlns:xlink="http://www.w3.org/1999/xlink" xml:space="preserve" xmlns:serif="http://www.serif.com/" style="fill-rule:evenodd;clip-rule:evenodd;stroke-linejoin:round;stroke-miterlimit:2;">
    <g transform="matrix(1,0,0,1,-476,-4487)">
        <g transform="matrix(0.551625,0,0,0.551625,320.947,2100.82)">
            <g id="Hospitality-hands" serif:id="Hospitality hands" transform="matrix(4.21295,0,0,4.21295,-1912.13,-8018.71)">
                <path d="M571.062,2944.39C571.663,2944.39 572.262,2944.99 572.268,2945.59L572.268,2951.23C572.268,2951.83 571.788,2952.43 571.068,2952.43L567.708,2952.43C567.348,2953.39 566.989,2954.35 566.508,2955.19L568.787,2957.59C569.025,2957.83 569.146,2958.07 569.146,2958.43C569.146,2958.79 569.025,2959.03 568.787,2959.27L564.707,2963.23C564.468,2963.47 564.105,2963.59 563.867,2963.59C563.628,2963.59 563.265,2963.47 563.026,2963.23L560.627,2960.83C559.908,2961.19 559.067,2961.55 558.227,2961.79L558.227,2965.15C558.227,2965.75 557.629,2966.35 557.027,2966.35L551.388,2966.35C550.79,2966.35 550.188,2965.75 550.188,2965.15L550.188,2961.79C549.23,2961.43 548.39,2961.07 547.429,2960.59L545.03,2962.87C544.791,2963.11 544.428,2963.23 544.189,2963.23C543.951,2963.23 543.588,2963.11 543.349,2962.87L539.39,2958.79C539.152,2958.55 539.031,2958.31 539.031,2957.95C539.031,2957.59 539.152,2957.35 539.39,2957.11L541.79,2954.83C541.43,2954.11 541.067,2953.27 540.829,2952.43L537.468,2952.43C536.87,2952.43 536.268,2951.83 536.268,2951.23L536.268,2945.59C536.268,2944.87 536.867,2944.39 537.468,2944.39L540.946,2944.39C541.306,2943.43 541.666,2942.47 542.146,2941.63L539.868,2939.23C539.629,2939 539.508,2938.75 539.508,2938.39C539.508,2938.03 539.629,2937.79 539.868,2937.55L543.947,2933.6C544.428,2933.11 545.147,2933.11 545.628,2933.6L547.906,2935.99C548.626,2935.64 549.466,2935.27 550.306,2935.03L550.306,2931.67C550.306,2931.08 550.904,2930.47 551.506,2930.47L557.145,2930.47C557.743,2930.47 558.345,2931.07 558.345,2931.67L558.345,2935.03C559.303,2935.27 560.143,2935.75 561.104,2936.23L563.504,2933.95C563.984,2933.47 564.703,2933.47 565.184,2933.95L569.143,2937.91C569.382,2938.15 569.503,2938.39 569.503,2938.75C569.503,2939.11 569.382,2939.36 569.143,2939.59L566.743,2941.87C567.103,2942.71 567.466,2943.55 567.705,2944.39L571.062,2944.39ZM554.265,2956.03C558.466,2956.03 561.824,2952.67 561.824,2948.47C561.824,2944.28 558.466,2940.91 554.265,2940.91C550.068,2940.91 546.707,2944.27 546.707,2948.47C546.707,2952.67 550.064,2956.03 554.265,2956.03ZM553.758,2987.42L534.744,2991.24L534.136,2988.24C533.879,2987.03 534.604,2985.83 535.796,2985.5L536.019,2985.44L550.348,2982.52C551.629,2982.26 552.874,2983.09 553.133,2984.37L553.758,2987.42ZM527.273,2947.33L527.926,2957.51C527.871,2957.54 527.821,2957.58 527.774,2957.62C526.417,2958.83 526.296,2960.91 527.495,2962.28L533.336,2968.88C533.435,2969 533.578,2969.07 533.731,2969.08C533.882,2969.09 534.031,2969.04 534.145,2968.93C534.382,2968.72 534.402,2968.36 534.195,2968.12L528.354,2961.52C527.567,2960.63 527.646,2959.27 528.532,2958.47C528.615,2958.4 528.707,2958.33 528.804,2958.28L528.82,2958.27C529.717,2957.71 530.88,2957.88 531.58,2958.67L538.492,2966.48C538.548,2966.55 538.621,2966.6 538.701,2966.63C541.687,2968.06 544.237,2970.26 546.089,2973.01C547.506,2975.08 548.619,2979.98 548.966,2981.64L535.835,2984.32L522.765,2969.55C521.445,2968.06 520.751,2966.12 520.83,2964.13L521.42,2947.41C521.471,2945.93 522.627,2944.71 524.109,2944.59C525.734,2944.49 527.134,2945.71 527.273,2947.33ZM554.778,2987.42L555.403,2984.37C555.662,2983.09 556.907,2982.26 558.188,2982.52L572.518,2985.44L572.74,2985.5C573.932,2985.83 574.658,2987.03 574.401,2988.24L573.793,2991.24L554.778,2987.42ZM581.264,2947.33C581.402,2945.71 582.803,2944.49 584.427,2944.59C585.91,2944.71 587.066,2945.93 587.117,2947.41L587.706,2964.13C587.786,2966.12 587.092,2968.06 585.772,2969.55L572.702,2984.32L559.571,2981.64C559.917,2979.98 561.031,2975.08 562.447,2973.01C564.3,2970.26 566.85,2968.06 569.836,2966.63C569.916,2966.6 569.989,2966.55 570.044,2966.48L576.956,2958.67C577.657,2957.88 578.82,2957.71 579.716,2958.27L579.733,2958.28C579.83,2958.33 579.922,2958.4 580.004,2958.47C580.891,2959.27 580.97,2960.63 580.182,2961.52L574.342,2968.12C574.135,2968.36 574.155,2968.72 574.391,2968.93C574.505,2969.04 574.654,2969.09 574.805,2969.08C574.958,2969.07 575.102,2969 575.201,2968.88L581.041,2962.28C582.241,2960.91 582.12,2958.83 580.762,2957.62C580.716,2957.58 580.666,2957.54 580.61,2957.51L581.264,2947.33Z" style="fill:rgb(71,176,236);"/>
            </g>
        </g>
    </g>
</svg>
