<?xml version="1.0" encoding="UTF-8" standalone="no"?>
<!DOCTYPE svg PUBLIC "-//W3C//DTD SVG 1.1//EN" "http://www.w3.org/Graphics/SVG/1.1/DTD/svg11.dtd">
<svg width="100%" height="100%" viewBox="0 0 134 134" version="1.1" xmlns="http://www.w3.org/2000/svg" xmlns:xlink="http://www.w3.org/1999/xlink" xml:space="preserve" xmlns:serif="http://www.serif.com/" style="fill-rule:evenodd;clip-rule:evenodd;stroke-linejoin:round;stroke-miterlimit:2;">
    <g transform="matrix(1,0,0,1,-141,-5287)">
        <g transform="matrix(0.655837,0,0,0.655837,100.168,1992.28)">
            <g id="Job-openings" serif:id="Job openings" transform="matrix(2.02893,0,0,2.02893,62.6206,5025.01)">
                <path d="M95.781,83.551L91.262,83.551L91.262,74.406L95.781,74.406C97.715,74.406 99.297,76.469 99.297,78.977C99.297,81.489 97.715,83.547 95.781,83.547L95.781,83.551ZM46.261,83.551L89.691,83.551L89.691,74.406L46.261,74.406L46.261,83.551ZM44.777,83.551L36.894,80.059L34.03,80.059C33.57,80.059 32.558,79.578 32.558,78.981C32.558,78.383 33.573,77.903 34.03,77.903L36.894,77.903L44.777,74.41L44.777,83.551ZM2.242,0L72.719,0L72.719,12.883L68.234,12.883L68.234,4.473L4.476,4.473L4.476,95.512L68.234,95.512L68.234,86.625L72.719,86.625L72.719,99.996L-0,99.996L-0,-0.004L2.242,-0.004L2.242,0ZM100,37.946L100,65.258C100,67.129 98.472,68.645 96.613,68.645L40.812,68.645C38.953,68.645 37.425,67.129 37.425,65.258L37.425,37.946L63.98,37.946L63.98,43.192C63.98,45.798 66.105,47.923 68.711,47.923C71.316,47.923 73.441,45.798 73.441,43.192L73.441,37.946L100,37.946ZM58.949,15.923L78.465,15.923C79.758,15.923 80.804,16.97 80.804,18.263L80.804,24.95L77.172,24.95L77.172,19.544L60.242,19.544L60.242,24.95L56.609,24.95L56.609,18.263C56.609,16.97 57.667,15.923 58.949,15.923ZM40.811,26.724L96.613,26.724C98.472,26.724 99.999,28.251 99.999,30.111L99.999,36.177L71.694,36.177L71.694,43.197C71.694,44.841 70.347,46.177 68.714,46.177C67.069,46.177 65.722,44.841 65.722,43.197L65.722,36.177L37.425,36.177L37.425,30.111C37.425,28.251 38.952,26.724 40.811,26.724ZM68.71,41.54C69.499,41.54 70.139,42.181 70.139,42.97C70.139,43.759 69.499,44.399 68.71,44.399C67.921,44.399 67.28,43.759 67.28,42.97C67.28,42.181 67.921,41.54 68.71,41.54ZM11.78,32.084L32.389,32.084L32.389,36.58L11.78,36.58L11.78,32.084ZM11.78,43.845L32.389,43.845L32.389,48.342L11.78,48.342L11.78,43.845ZM11.78,55.619L32.389,55.619L32.389,60.103L11.78,60.103L11.78,55.619Z" style="fill:rgb(71,176,236);"/>
            </g>
        </g>
    </g>
</svg>
