<?xml version="1.0" encoding="UTF-8" standalone="no"?>
<!DOCTYPE svg PUBLIC "-//W3C//DTD SVG 1.1//EN" "http://www.w3.org/Graphics/SVG/1.1/DTD/svg11.dtd">
<svg width="100%" height="100%" viewBox="0 0 137 156" version="1.1" xmlns="http://www.w3.org/2000/svg" xmlns:xlink="http://www.w3.org/1999/xlink" xml:space="preserve" xmlns:serif="http://www.serif.com/" style="fill-rule:evenodd;clip-rule:evenodd;stroke-linejoin:round;stroke-miterlimit:2;">
    <g transform="matrix(1,0,0,1,-139,-4483)">
        <g transform="matrix(0.655837,0,0,0.655837,100.168,1992.28)">
            <g id="Leadership-people" serif:id="Leadership people" transform="matrix(3.54351,0,0,3.54351,-572.166,-6585.02)">
                <path d="M207.769,2930.46C211.045,2930.46 213.578,2933.06 213.578,2936.26C213.578,2939.47 210.972,2942.07 207.769,2942.07C204.567,2942.07 201.96,2939.47 201.96,2936.26C201.96,2933.06 204.567,2930.46 207.769,2930.46ZM213.206,2944.23C216.034,2944.23 218.267,2946.47 218.343,2949.3L218.343,2953.99L197.344,2953.99L197.344,2949.3C197.344,2946.47 199.654,2944.23 202.408,2944.23L213.206,2944.23ZM189.004,2973.65C192.204,2973.65 194.81,2976.25 194.813,2979.46C194.813,2982.66 192.207,2985.26 189.004,2985.26C185.802,2985.26 183.195,2982.66 183.195,2979.46C183.195,2976.25 185.802,2973.65 189.004,2973.65ZM194.365,2987.42C197.195,2987.42 199.502,2989.66 199.502,2992.49L199.502,2997.18L178.503,2997.18L178.503,2992.49C178.503,2989.66 180.813,2987.42 183.567,2987.42L194.365,2987.42ZM226.534,2973.5C229.737,2973.5 232.343,2976.11 232.343,2979.31C232.343,2982.51 229.737,2985.12 226.534,2985.12C223.332,2985.12 220.725,2982.51 220.725,2979.31C220.725,2976.11 223.332,2973.5 226.534,2973.5ZM231.895,2987.28C234.726,2987.28 237.035,2989.51 237.035,2992.41L237.032,2997.03L216.033,2997.03L216.033,2992.34C216.033,2989.51 218.343,2987.28 221.098,2987.28L231.895,2987.28ZM218.119,2972.9L215.813,2975.88L207.769,2969.7L199.502,2975.88L197.268,2972.9L205.908,2966.42L205.908,2957.41L209.631,2957.41L209.631,2966.42L218.119,2972.9Z" style="fill:rgb(0,191,255);"/>
            </g>
        </g>
    </g>
</svg>
