<?xml version="1.0" encoding="UTF-8" standalone="no"?>
<!DOCTYPE svg PUBLIC "-//W3C//DTD SVG 1.1//EN" "http://www.w3.org/Graphics/SVG/1.1/DTD/svg11.dtd">
<svg width="100%" height="100%" viewBox="0 0 154 117" version="1.1" xmlns="http://www.w3.org/2000/svg" xmlns:xlink="http://www.w3.org/1999/xlink" xml:space="preserve" xmlns:serif="http://www.serif.com/" style="fill-rule:evenodd;clip-rule:evenodd;stroke-linejoin:round;stroke-miterlimit:2;">
    <g transform="matrix(1,0,0,1,-138,-3056)">
        <g transform="matrix(0.655837,0,0,0.655837,100.168,1992.28)">
            <g id="Private-dining-plates" serif:id="Private dining plates" transform="matrix(3.54351,0,0,3.54351,-565.852,-5467.28)">
                <path d="M209.036,2004.71C214.644,2004.72 220.021,2006.95 223.987,2010.92C227.952,2014.88 230.181,2020.26 230.186,2025.87C230.186,2031.48 227.957,2036.87 223.987,2040.83C220.019,2044.8 214.636,2047.03 209.023,2047.03C203.41,2047.03 198.028,2044.8 194.059,2040.83C190.091,2036.86 187.862,2031.48 187.865,2025.86C187.867,2020.25 190.099,2014.87 194.07,2010.9C198.037,2006.93 203.423,2004.71 209.036,2004.71ZM209.036,2041.04C213.056,2041.03 216.911,2039.43 219.755,2036.59C222.596,2033.75 224.197,2029.89 224.202,2025.87C224.202,2021.85 222.604,2017.99 219.76,2015.14C216.916,2012.3 213.058,2010.7 209.036,2010.7C205.014,2010.7 201.155,2012.3 198.312,2015.14C195.468,2017.99 193.869,2021.85 193.869,2025.87C193.869,2029.89 195.468,2033.75 198.312,2036.59C201.155,2039.44 205.014,2041.04 209.036,2041.04ZM209.036,2012.68C212.53,2012.69 215.881,2014.08 218.351,2016.55C220.823,2019.02 222.212,2022.38 222.214,2025.87C222.214,2029.37 220.823,2032.72 218.351,2035.2C215.876,2037.67 212.52,2039.06 209.023,2039.06C205.523,2039.06 202.17,2037.67 199.695,2035.19C197.223,2032.72 195.834,2029.36 195.837,2025.86C195.839,2022.37 197.231,2019.01 199.705,2016.54C202.18,2014.07 205.536,2012.68 209.036,2012.68ZM186.184,2001.05C186.729,2001.06 187.175,2001.49 187.198,2002.03C187.198,2002.03 187.352,2010.44 187.403,2012.96C187.408,2013.42 187.255,2013.87 186.963,2014.23L183.888,2018.09C183.568,2018.5 183.399,2019 183.417,2019.52L184.39,2048.07C184.416,2048.9 184.029,2049.7 183.353,2050.2C182.677,2050.69 181.8,2050.83 181.009,2050.56C179.987,2050.2 179.305,2049.24 179.318,2048.16L179.318,2048.07L180.23,2019.52C180.248,2019 180.079,2018.5 179.759,2018.09L176.684,2014.25C176.397,2013.88 176.241,2013.43 176.244,2012.97L176.428,2002.07C176.428,2001.5 176.887,2001.04 177.453,2001.04C177.999,2001.07 178.426,2001.52 178.426,2002.07L178.293,2012.69L179.318,2012.69L179.318,2002.05C179.205,2001.73 179.254,2001.38 179.446,2001.11C179.641,2000.84 179.953,2000.67 180.289,2000.68C180.622,2000.68 180.935,2000.84 181.124,2001.12C181.316,2001.39 181.36,2001.74 181.245,2002.06L181.245,2012.69L182.392,2012.69L182.392,2002.06C182.392,2001.49 182.851,2001.03 183.417,2001.03C183.689,2001.03 183.95,2001.14 184.142,2001.33C184.334,2001.52 184.442,2001.78 184.442,2002.06L184.442,2012.7L185.395,2012.7L185.21,2002.08C185.21,2001.53 185.638,2001.08 186.184,2001.05ZM241.213,2032.02L241.827,2048.41C241.83,2049 241.597,2049.57 241.182,2049.98C240.769,2050.4 240.206,2050.63 239.619,2050.63C239.032,2050.64 238.469,2050.4 238.051,2049.99C237.636,2049.57 237.403,2049.01 237.4,2048.43L237.78,2033.05L236.181,2033.05C235.812,2033.05 235.453,2032.66 235.453,2032.14C233.814,2007.44 239.85,2001.41 240.137,2001.2C240.341,2001.03 240.649,2001.03 240.854,2001.2C241.095,2001.43 241.225,2001.75 241.213,2002.09L241.213,2032.02Z" style="fill:rgb(71,176,236);"/>
            </g>
        </g>
    </g>
</svg>
