<?xml version="1.0" encoding="UTF-8" standalone="no"?>
<!DOCTYPE svg PUBLIC "-//W3C//DTD SVG 1.1//EN" "http://www.w3.org/Graphics/SVG/1.1/DTD/svg11.dtd">
<svg width="100%" height="100%" viewBox="0 0 92 156" version="1.1" xmlns="http://www.w3.org/2000/svg" xmlns:xlink="http://www.w3.org/1999/xlink" xml:space="preserve" xmlns:serif="http://www.serif.com/" style="fill-rule:evenodd;clip-rule:evenodd;stroke-linejoin:round;stroke-miterlimit:2;">
    <g transform="matrix(1,0,0,1,-162,-3740)">
        <g transform="matrix(0.655837,0,0,0.655837,100.168,1992.28)">
            <g id="Speaker-podium" serif:id="Speaker podium" transform="matrix(3.54351,0,0,3.54351,-572.166,-6058.59)">
                <path d="M207.769,2479.55C213.73,2479.55 218.562,2484.39 218.562,2490.35L218.562,2495.26L196.976,2495.26L196.976,2490.35C196.976,2484.39 201.808,2479.55 207.769,2479.55ZM221.176,2502.12L216.996,2524.69L225.43,2524.69C226.515,2524.69 227.393,2525.57 227.393,2526.65C227.393,2527.74 226.515,2528.62 225.43,2528.62L190.108,2528.62C189.024,2528.62 188.145,2527.74 188.145,2526.65C188.145,2525.57 189.024,2524.69 190.108,2524.69L198.542,2524.69L194.362,2502.12L193.051,2502.12C191.967,2502.12 191.088,2501.24 191.088,2500.16C191.088,2499.08 191.967,2498.2 193.051,2498.2L222.488,2498.2C223.572,2498.2 224.45,2499.08 224.45,2500.16C224.45,2501.24 223.572,2502.12 222.488,2502.12L221.176,2502.12ZM207.769,2475.63C203.976,2475.63 200.901,2472.56 200.901,2468.76C200.901,2464.97 203.976,2461.89 207.769,2461.89C211.561,2461.89 214.637,2464.97 214.637,2468.76C214.637,2472.56 211.561,2475.63 207.769,2475.63Z" style="fill:rgb(71,176,236);"/>
            </g>
        </g>
    </g>
</svg>
