<?xml version="1.0" encoding="UTF-8" standalone="no"?>
<!DOCTYPE svg PUBLIC "-//W3C//DTD SVG 1.1//EN" "http://www.w3.org/Graphics/SVG/1.1/DTD/svg11.dtd">
<svg width="100%" height="100%" viewBox="0 0 104 161" version="1.1" xmlns="http://www.w3.org/2000/svg" xmlns:xlink="http://www.w3.org/1999/xlink" xml:space="preserve" xmlns:serif="http://www.serif.com/" style="fill-rule:evenodd;clip-rule:evenodd;stroke-linejoin:round;stroke-miterlimit:2;">
    <g transform="matrix(1,0,0,1,-521,-2351)">
        <g transform="matrix(0.942029,0,0,2.69186,0,0)">
            <g id="Story-book" serif:id="Story book" transform="matrix(2.46698,0,0,0.863333,-761.496,-450.867)">
                <path d="M549.82,1590.34C550.418,1590.34 550.902,1590.82 550.9,1591.42L550.9,1601.75C550.9,1602.19 550.64,1602.58 550.237,1602.75C550.104,1602.81 549.96,1602.84 549.82,1602.84C549.541,1602.84 549.267,1602.73 549.056,1602.52L545.136,1598.67L541.217,1602.52C540.905,1602.83 540.442,1602.92 540.039,1602.75C539.638,1602.58 539.376,1602.19 539.376,1601.75L539.376,1591.42C539.376,1590.82 539.86,1590.34 540.459,1590.34L549.82,1590.34ZM577.546,1585.69L577.546,1597.14C577.546,1597.33 577.5,1597.51 577.416,1597.66C577.232,1598 576.874,1598.23 576.463,1598.23L553.068,1598.23L553.068,1591.42C553.068,1589.62 551.612,1588.17 549.82,1588.17L540.459,1588.17C538.667,1588.17 537.21,1589.62 537.21,1591.42L537.21,1597.58C534.893,1596.5 533.285,1594.14 533.285,1591.42C533.285,1587.66 536.341,1584.61 540.096,1584.61L576.463,1584.61C577.061,1584.61 577.546,1585.09 577.546,1585.69ZM575.38,1595.93L575.38,1586.9C573.339,1587.39 571.818,1589.23 571.818,1591.42C571.818,1593.61 573.339,1595.44 575.38,1595.93ZM539.376,1534.16L539.376,1582.47C536.945,1582.67 534.784,1583.83 533.285,1585.58L533.285,1541.25C533.285,1537.66 535.932,1534.68 539.376,1534.16ZM576.463,1534.08C577.061,1534.08 577.545,1534.56 577.545,1535.16L577.545,1582.63C577.207,1582.51 576.842,1582.44 576.463,1582.44L541.541,1582.44L541.541,1534.08L576.463,1534.08ZM565.112,1572.02L564.651,1572.02L564.651,1551.88C567.185,1551.58 569.156,1549.42 569.156,1546.81C569.156,1544 566.866,1541.7 564.048,1541.7L552.876,1541.7C550.06,1541.7 547.767,1543.99 547.767,1546.81C547.767,1549.42 549.738,1551.58 552.272,1551.88L552.272,1572.02L551.809,1572.02C551.211,1572.02 550.726,1572.51 550.726,1573.11C550.726,1573.63 550.301,1574.05 549.779,1574.05C549.18,1574.05 548.696,1574.54 548.696,1575.14L548.696,1578.07C548.696,1578.66 549.18,1579.15 549.779,1579.15L567.142,1579.15C567.74,1579.15 568.225,1578.66 568.225,1578.07L568.225,1575.14C568.225,1574.54 567.74,1574.05 567.142,1574.05C566.62,1574.05 566.195,1573.63 566.195,1573.11C566.195,1572.51 565.71,1572.02 565.112,1572.02ZM560.567,1550.55C561.119,1551.06 561.771,1551.44 562.483,1551.67L562.483,1572.02L554.438,1572.02L554.438,1551.67C555.15,1551.44 555.803,1551.06 556.355,1550.55L560.567,1550.55ZM559.544,1569.38L559.544,1553.15C559.544,1552.55 559.059,1552.07 558.461,1552.07C557.863,1552.07 557.378,1552.55 557.378,1553.15L557.378,1569.38C557.378,1569.97 557.863,1570.46 558.461,1570.46C559.059,1570.46 559.544,1569.97 559.544,1569.38ZM566.991,1546.81C566.991,1548.43 565.67,1549.75 564.043,1549.75C563.983,1549.75 563.753,1549.74 563.691,1549.73C562.973,1549.64 562.313,1549.3 561.834,1548.75C561.628,1548.52 561.333,1548.38 561.021,1548.38L555.897,1548.38C555.586,1548.38 555.291,1548.52 555.085,1548.75C554.606,1549.3 553.945,1549.64 553.228,1549.73C553.168,1549.74 552.935,1549.75 552.876,1549.75C551.254,1549.75 549.933,1548.43 549.933,1546.81C549.933,1545.18 551.254,1543.86 552.876,1543.86L564.048,1543.87C565.669,1543.87 566.991,1545.19 566.991,1546.81ZM552.697,1574.19L564.224,1574.19C564.538,1575.04 565.212,1575.71 566.06,1576.02L566.06,1576.98L550.862,1576.98L550.862,1576.02C551.709,1575.71 552.383,1575.04 552.697,1574.19Z" style="fill:rgb(71,176,236);"/>
            </g>
        </g>
    </g>
</svg>
