<?xml version="1.0" encoding="UTF-8" standalone="no"?>
<!DOCTYPE svg PUBLIC "-//W3C//DTD SVG 1.1//EN" "http://www.w3.org/Graphics/SVG/1.1/DTD/svg11.dtd">
<svg width="100%" height="100%" viewBox="0 0 142 127" version="1.1" xmlns="http://www.w3.org/2000/svg" xmlns:xlink="http://www.w3.org/1999/xlink" xml:space="preserve" xmlns:serif="http://www.serif.com/" style="fill-rule:evenodd;clip-rule:evenodd;stroke-linejoin:round;stroke-miterlimit:2;">
    <g transform="matrix(1,0,0,1,-842,-2368)">
        <g transform="matrix(0.942029,0,0,2.69186,0,0)">
            <g id="Team-people" serif:id="Team people" transform="matrix(2.46698,0,0,0.863333,-1282.73,-458.503)">
                <path d="M921.353,1567.58C921.34,1571.52 918.67,1574.96 914.856,1575.94L914.856,1579.76L918.3,1578.63C919.437,1578.25 920.663,1578.87 921.039,1580C921.415,1581.14 920.801,1582.37 919.664,1582.74L914.856,1584.3L914.856,1588.89L919.079,1601.54C919.455,1602.68 918.841,1603.9 917.704,1604.28C916.567,1604.66 915.341,1604.04 914.965,1602.91L912.691,1596.08L910.417,1602.93C910.041,1604.06 908.814,1604.68 907.677,1604.3C907.13,1604.12 906.681,1603.73 906.421,1603.22C906.164,1602.7 906.121,1602.11 906.302,1601.56L910.525,1588.92L910.525,1584.32L905.717,1582.72C904.58,1582.35 903.966,1581.12 904.342,1579.98C904.523,1579.43 904.913,1578.99 905.428,1578.73C905.942,1578.47 906.535,1578.43 907.082,1578.61L910.525,1579.76L910.525,1575.94C907.323,1575.12 904.87,1572.54 904.204,1569.3C903.541,1566.06 904.778,1562.72 907.398,1560.7C910.016,1558.68 913.557,1558.32 916.524,1559.79C919.491,1561.25 921.364,1564.28 921.353,1567.58ZM936.513,1580.23L940.736,1592.88C941.113,1594.02 940.498,1595.24 939.361,1595.62C938.224,1596 936.998,1595.38 936.622,1594.24L934.348,1587.42L932.074,1594.22C931.698,1595.36 930.471,1595.97 929.334,1595.6C928.787,1595.41 928.338,1595.03 928.078,1594.51C927.821,1594 927.778,1593.4 927.959,1592.86L932.182,1580.21L932.182,1577.57L926.443,1580.49C925.379,1580.98 924.121,1580.54 923.601,1579.49C923.078,1578.44 923.484,1577.17 924.516,1576.62L928.089,1574.84L925.014,1574.08C923.817,1573.79 923.081,1572.59 923.368,1571.4C923.655,1570.2 924.857,1569.46 926.053,1569.75L932.182,1571.29L932.182,1567.24C927.959,1566.15 925.203,1562.09 925.756,1557.76C926.305,1553.43 929.987,1550.19 934.348,1550.19C938.708,1550.19 942.39,1553.43 942.939,1557.76C943.492,1562.09 940.736,1566.15 936.513,1567.24L936.513,1580.23ZM900.867,1576.55C901.4,1576.79 901.809,1577.25 902.004,1577.8C902.202,1578.35 902.164,1578.96 901.901,1579.48C901.641,1580.01 901.178,1580.4 900.621,1580.58C900.063,1580.76 899.457,1580.7 898.94,1580.43L893.201,1577.57L893.201,1580.23L897.424,1592.88C897.8,1594.02 897.185,1595.24 896.049,1595.62C894.912,1596 893.685,1595.38 893.309,1594.24L891.035,1587.42L888.761,1594.24C888.385,1595.38 887.159,1596 886.022,1595.62C885.475,1595.44 885.025,1595.05 884.766,1594.53C884.508,1594.02 884.465,1593.43 884.646,1592.88L888.87,1580.28L888.87,1567.28C884.647,1566.19 881.891,1562.13 882.443,1557.8C882.993,1553.48 886.674,1550.23 891.035,1550.23C895.396,1550.23 899.077,1553.48 899.627,1557.8C900.179,1562.13 897.423,1566.19 893.2,1567.28L893.2,1571.31L899.329,1569.75C900.526,1569.46 901.728,1570.2 902.015,1571.4C902.301,1572.59 901.565,1573.79 900.369,1574.08L897.293,1574.77L900.867,1576.55Z" style="fill:rgb(71,176,236);"/>
            </g>
        </g>
    </g>
</svg>
