<?xml version="1.0" encoding="UTF-8" standalone="no"?>
<!DOCTYPE svg PUBLIC "-//W3C//DTD SVG 1.1//EN" "http://www.w3.org/Graphics/SVG/1.1/DTD/svg11.dtd">
<svg width="100%" height="100%" viewBox="0 0 109 129" version="1.1" xmlns="http://www.w3.org/2000/svg" xmlns:xlink="http://www.w3.org/1999/xlink" xml:space="preserve" xmlns:serif="http://www.serif.com/" style="fill-rule:evenodd;clip-rule:evenodd;stroke-linejoin:round;stroke-miterlimit:2;">
    <g transform="matrix(1,0,0,1,-535,-3051)">
        <g transform="matrix(0.551625,0,0,0.551625,320.947,2100.82)">
            <g id="Wedding-people" serif:id="Wedding people" transform="matrix(4.21295,0,0,4.21295,-1845.97,-6700.51)">
                <path d="M566.383,2022.44C566.387,2024.17 565.347,2025.74 563.744,2026.41C562.143,2027.08 560.294,2026.72 559.063,2025.49C557.833,2024.27 557.462,2022.42 558.126,2020.81C558.79,2019.21 560.354,2018.16 562.091,2018.16C564.455,2018.16 566.375,2020.08 566.383,2022.44ZM568.911,2036.62L565.754,2051.8C565.396,2053.53 563.866,2054.78 562.091,2054.78C560.317,2054.78 558.788,2053.53 558.43,2051.8L555.288,2036.62C554.851,2034.57 555.364,2032.42 556.687,2030.79C558.012,2029.15 560.003,2028.2 562.108,2028.2C564.211,2028.2 566.202,2029.15 567.527,2030.79C568.85,2032.42 569.365,2034.57 568.926,2036.62L568.911,2036.62ZM549.696,2022.44C549.701,2024.17 548.658,2025.75 547.055,2026.41C545.449,2027.08 543.601,2026.72 542.372,2025.49C541.142,2024.26 540.776,2022.41 541.444,2020.8C542.112,2019.2 543.682,2018.16 545.421,2018.16C546.555,2018.16 547.641,2018.61 548.442,2019.41C549.246,2020.22 549.696,2021.3 549.696,2022.44ZM552.224,2036.62L549.16,2051.8C548.802,2053.53 547.272,2054.78 545.497,2054.78C543.723,2054.78 542.191,2053.53 541.836,2051.8L538.679,2036.62C538.239,2034.57 538.754,2032.42 540.078,2030.79C541.401,2029.15 543.394,2028.2 545.497,2028.2C547.602,2028.2 549.593,2029.15 550.916,2030.79C552.241,2032.42 552.754,2034.57 552.317,2036.62L552.224,2036.62ZM530.665,2030.43C530.657,2025.84 532.014,2021.35 534.565,2017.53C537.116,2013.71 540.745,2010.74 544.989,2008.98L544.36,2008.23L544.362,2008.23C542.552,2006.09 542.693,2002.92 544.684,2000.96C545.722,1999.99 547.116,1999.5 548.53,1999.61C549.965,1999.69 551.301,2000.36 552.223,2001.46L553.755,2003.36L555.164,2001.66C556.938,1999.48 560.099,1999.04 562.398,2000.66C563.559,2001.5 564.316,2002.78 564.482,2004.2C564.647,2005.61 564.225,2007.01 563.316,2008.1L562.536,2009.04C566.77,2010.79 570.392,2013.76 572.939,2017.57C575.488,2021.38 576.848,2025.85 576.846,2030.44L576.846,2053.42L576.846,2053.42C576.839,2054.13 576.266,2054.7 575.56,2054.71C574.855,2054.7 574.289,2054.12 574.289,2053.42L574.289,2030.44L574.289,2030.43C574.282,2026.21 572.976,2022.09 570.552,2018.63C568.126,2015.17 564.698,2012.53 560.728,2011.08L557.664,2014.75L557.662,2014.75C556.68,2015.92 555.225,2016.6 553.695,2016.6C552.163,2016.6 550.709,2015.92 549.726,2014.75L546.662,2011.12L546.662,2011.11C542.717,2012.58 539.314,2015.21 536.911,2018.67C534.511,2022.12 533.222,2026.23 533.222,2030.44L533.222,2053.42C533.221,2054.12 532.655,2054.7 531.951,2054.71C531.244,2054.7 530.671,2054.13 530.665,2053.42L530.665,2030.44L530.665,2030.43Z" style="fill:rgb(71,176,236);"/>
            </g>
        </g>
    </g>
</svg>
