<?xml version="1.0" encoding="UTF-8" standalone="no"?>
<!DOCTYPE svg PUBLIC "-//W3C//DTD SVG 1.1//EN" "http://www.w3.org/Graphics/SVG/1.1/DTD/svg11.dtd">
<svg width="100%" height="100%" viewBox="0 0 151 129" version="1.1" xmlns="http://www.w3.org/2000/svg" xmlns:xlink="http://www.w3.org/1999/xlink" xml:space="preserve" xmlns:serif="http://www.serif.com/" style="fill-rule:evenodd;clip-rule:evenodd;stroke-linejoin:round;stroke-miterlimit:2;">
    <g transform="matrix(1,0,0,1,-458,-3757)">
        <g transform="matrix(0.551625,0,0,0.551625,320.947,2100.82)">
            <g id="Workshop-people" serif:id="Workshop people" transform="matrix(3.10362,0,0,3.10362,-909.384,-5253.36)">
                <path d="M442.834,2734.96L442.834,2729.63C442.834,2724.56 446.865,2720.53 451.936,2720.53C457.006,2720.53 461.037,2724.56 461.037,2729.63L461.037,2734.96L442.834,2734.96ZM421.506,2734.96L421.506,2729.63C421.506,2724.56 425.541,2720.53 430.608,2720.53C435.678,2720.53 439.709,2724.56 439.709,2729.63L439.709,2734.96L421.506,2734.96ZM400.19,2734.96L400.19,2729.63C400.19,2724.56 404.221,2720.53 409.291,2720.53C414.362,2720.53 418.381,2724.56 418.381,2729.63L418.381,2734.96L400.19,2734.96ZM451.931,2707.85C454.865,2707.85 457.212,2710.2 457.212,2713.13C457.212,2716.06 454.865,2718.4 451.931,2718.4C448.998,2718.4 446.65,2716.06 446.65,2713.13C446.65,2710.2 448.998,2707.85 451.931,2707.85ZM409.291,2707.85C412.225,2707.85 414.561,2710.2 414.561,2713.13C414.561,2716.06 412.225,2718.4 409.291,2718.4C406.358,2718.4 404.01,2716.06 404.01,2713.13C404.01,2710.2 406.358,2707.85 409.291,2707.85ZM430.607,2707.85C433.541,2707.85 435.888,2710.2 435.888,2713.13C435.888,2716.06 433.541,2718.4 430.607,2718.4C427.674,2718.4 425.334,2716.06 425.334,2713.13C425.334,2710.2 427.674,2707.85 430.607,2707.85ZM385.76,2671.61C389.787,2671.61 393.029,2674.84 393.029,2678.87C393.029,2682.87 389.83,2686.07 385.842,2686.12C385.815,2686.12 385.787,2686.11 385.76,2686.11C385.733,2686.11 385.705,2686.12 385.678,2686.12C381.69,2686.07 378.506,2682.87 378.506,2678.87C378.506,2674.84 381.733,2671.61 385.76,2671.61ZM385.635,2689.25C385.678,2689.25 385.717,2689.25 385.756,2689.25C385.799,2689.25 385.838,2689.25 385.877,2689.25C392.596,2689.31 397.936,2694.68 397.936,2701.42L397.936,2706.95L393.05,2706.95C392.19,2706.95 391.499,2707.65 391.495,2708.51L391.495,2725.17L380.042,2725.17L380.042,2708.51C380.038,2707.65 379.343,2706.95 378.483,2706.95L373.581,2706.95L373.581,2701.42C373.581,2694.69 378.921,2689.31 385.64,2689.25L385.635,2689.25ZM390.674,2660.14L461.033,2660.14L461.033,2699.44L400.924,2699.44C400.213,2693.98 396.643,2689.42 391.748,2687.34C394.404,2685.45 396.15,2682.36 396.15,2678.88C396.15,2674.93 393.924,2671.49 390.67,2669.74L390.674,2660.14ZM408.08,2668.29C407.232,2668.35 406.588,2669.08 406.631,2669.93C406.678,2670.78 407.393,2671.44 408.24,2671.41L434.744,2671.41C435.166,2671.42 435.572,2671.26 435.873,2670.97C436.174,2670.67 436.342,2670.27 436.342,2669.85C436.342,2669.43 436.174,2669.03 435.873,2668.73C435.572,2668.44 435.166,2668.28 434.744,2668.29L408.24,2668.29C408.185,2668.28 408.135,2668.28 408.08,2668.29ZM408.24,2688.13L408.24,2688.14C407.392,2688.16 406.713,2688.85 406.713,2689.7C406.713,2690.55 407.393,2691.24 408.24,2691.26L450.064,2691.26C450.916,2691.24 451.595,2690.55 451.595,2689.7C451.595,2688.85 450.916,2688.16 450.064,2688.14L408.24,2688.13ZM408.08,2678.22C407.232,2678.28 406.588,2679.01 406.631,2679.86C406.674,2680.71 407.389,2681.37 408.24,2681.34L450.064,2681.34C450.916,2681.32 451.595,2680.63 451.595,2679.78C451.595,2678.93 450.916,2678.24 450.064,2678.22L408.24,2678.22C408.185,2678.22 408.135,2678.22 408.08,2678.22Z" style="fill:rgb(0,191,255);"/>
            </g>
        </g>
    </g>
</svg>
