<?xml version="1.0" encoding="UTF-8" standalone="no"?>
<!DOCTYPE svg PUBLIC "-//W3C//DTD SVG 1.1//EN" "http://www.w3.org/Graphics/SVG/1.1/DTD/svg11.dtd">
<svg width="100%" height="100%" viewBox="0 0 74 148" version="1.1" xmlns="http://www.w3.org/2000/svg" xmlns:xlink="http://www.w3.org/1999/xlink" xml:space="preserve" xmlns:serif="http://www.serif.com/" style="fill-rule:evenodd;clip-rule:evenodd;stroke-linejoin:round;stroke-miterlimit:2;">
    <g transform="matrix(1,0,0,1,-877,-5277)">
        <g transform="matrix(0.551625,0,0,0.551625,320.947,2100.82)">
            <g id="Workplace-chemistry" serif:id="Workplace chemistry" transform="matrix(4.21295,0,0,4.21295,-2763.43,-8550.63)">
                <path d="M924.287,3434.97C926.032,3437.54 926.971,3440.57 926.979,3443.68C927.036,3448.7 924.699,3453.45 920.688,3456.46C916.675,3459.48 911.465,3460.41 906.658,3458.96C901.851,3457.52 898.018,3453.87 896.337,3449.14C894.659,3444.41 895.332,3439.16 898.149,3435L898.257,3434.89C898.285,3434.81 898.329,3434.73 898.386,3434.67L898.386,3434.61C899.805,3432.6 901.676,3430.95 903.848,3429.8L903.848,3401.46L903.168,3401.46C902.704,3401.45 902.33,3401.07 902.33,3400.61L902.33,3397.19C902.335,3396.74 902.694,3396.37 903.148,3396.35L919.259,3396.35C919.712,3396.37 920.072,3396.74 920.077,3397.19L920.077,3400.61C920.077,3401.07 919.703,3401.45 919.239,3401.46L918.569,3401.46L918.569,3429.81C920.735,3430.97 922.604,3432.61 924.021,3434.62L924.287,3434.97ZM901.698,3434.53L920.767,3434.53C919.638,3433.35 918.303,3432.4 916.823,3431.71C916.385,3431.51 916.104,3431.07 916.104,3430.59L916.104,3401.46L906.372,3401.46L906.372,3430.59C906.365,3431.07 906.081,3431.51 905.642,3431.71C904.166,3432.4 902.83,3433.36 901.698,3434.53ZM912.771,3414.27C913.188,3414.26 913.589,3414.43 913.885,3414.72C914.181,3415.02 914.349,3415.42 914.349,3415.84C914.349,3416.47 913.967,3417.04 913.382,3417.28C912.798,3417.53 912.125,3417.39 911.677,3416.95C911.226,3416.5 911.09,3415.83 911.329,3415.24C911.568,3414.66 912.138,3414.27 912.771,3414.27ZM910.878,3422.97C911.381,3422.97 911.862,3423.17 912.217,3423.53C912.571,3423.88 912.771,3424.36 912.771,3424.87C912.771,3425.63 912.31,3426.32 911.603,3426.62C910.895,3426.91 910.082,3426.75 909.54,3426.2C908.997,3425.66 908.837,3424.85 909.128,3424.14C909.421,3423.43 910.111,3422.97 910.878,3422.97Z" style="fill:rgb(71,176,236);"/>
            </g>
        </g>
    </g>
</svg>
